<svg width="131" height="25" viewBox="0 0 131 25" fill="none" xmlns="http://www.w3.org/2000/svg">
<path d="M1.02094 24.1703L0 22.1923L11.922 6.07143H1.02094V0.829674H19.9578V4.71978L9.71544 18.9286H10.7364L20.0237 18.2692V24.1703H1.02094Z" fill="white"/>
<path fill-rule="evenodd" clip-rule="evenodd" d="M119.835 24.5C118.43 24.5 117.058 24.3352 115.719 24.0055C114.401 23.6539 113.205 23.0385 112.129 22.1593C111.075 21.2802 110.23 20.0605 109.593 18.5C108.978 16.9396 108.671 14.9396 108.671 12.5C108.671 10.0604 108.978 8.06045 109.593 6.5C110.23 4.93955 111.075 3.71977 112.129 2.84066C113.205 1.96154 114.401 1.35715 115.719 1.02748C117.058 0.675825 118.43 0.500001 119.835 0.500001C121.241 0.500001 122.602 0.675825 123.919 1.02748C125.259 1.37912 126.455 1.9945 127.509 2.87363C128.585 3.75274 129.43 4.97252 130.045 6.53297C130.682 8.09342 131 10.0824 131 12.5C131 14.9176 130.682 16.9066 130.045 18.467C129.43 20.0275 128.585 21.2473 127.509 22.1264C126.455 23.0055 125.259 23.6209 123.919 23.9725C122.602 24.3242 121.241 24.5 119.835 24.5ZM123.524 17.4451C122.69 18.4121 121.46 18.8956 119.835 18.8956C118.233 18.8956 117.014 18.4011 116.18 17.4121C115.346 16.4231 114.928 14.7857 114.928 12.5C114.928 10.2143 115.346 8.57692 116.18 7.58791C117.014 6.5989 118.233 6.1044 119.835 6.1044C121.46 6.1044 122.69 6.5879 123.524 7.55494C124.358 8.52199 124.776 10.1703 124.776 12.5C124.776 14.8297 124.358 16.478 123.524 17.4451Z" fill="white"/>
<path fill-rule="evenodd" clip-rule="evenodd" d="M81.7311 24.1703V6.13736L81.0725 2.80769L81.7311 0.829674H92.2699C93.8726 0.829674 95.3106 1.08242 96.5842 1.58791C97.8794 2.07143 98.9004 2.9066 99.6471 4.09341C100.415 5.25826 100.8 6.87364 100.8 8.93956C100.8 10.8077 100.459 12.3242 99.7788 13.489C99.098 14.6319 98.154 15.489 96.9465 16.0604L97.2759 16.4231L100.536 20.511L102.414 22.1923V24.1703H95.0034L90.3927 17.1484H87.6592V18.8626L87.9885 22.1593L87.6592 24.1703H81.7311ZM90.8867 11.9725H87.6592L87.3299 6.1044H90.755C91.5232 6.1044 92.193 6.17033 92.7639 6.3022C93.3568 6.43407 93.8178 6.7088 94.1471 7.12637C94.4765 7.52198 94.6411 8.12639 94.6411 8.93956C94.6411 10.1044 94.3007 10.9066 93.6202 11.3462C92.9394 11.7637 92.0283 11.9725 90.8867 11.9725Z" fill="white"/>
<path d="M60.8182 24.1703V6.1044L54.2315 6.43407V0.829674H73.4977V6.43407L66.7463 6.1044V18.8956L67.1085 22.1923L66.7463 24.1703H60.8182Z" fill="white"/>
<path d="M28.5932 24.1703L27.9345 22.1923L28.5932 18.8956V0.829674H44.8954L46.5421 1.81868L44.3685 6.43407L41.4044 6.1044H34.5213V9.73077H43.3805V14.8407H39.4943L34.5213 14.511V18.8956H44.3685L48.2876 22.0604L46.3445 24.1703H28.5932Z" fill="white"/>
</svg>
