<svg width="149" height="149" viewBox="0 0 149 149" fill="none" xmlns="http://www.w3.org/2000/svg">
            <path transform="translate(15.5,0)"
                  d="M52.0476 146.513V55.6403C52.0476 54.7361 51.3514 53.8308 50.4238 53.8308H72.2287C71.3008 53.8308 70.6049 54.7361 70.6049 55.6403V146.513C70.6049 147.87 69.445 149 68.0532 149H54.5989C53.2072 149 52.0476 147.87 52.0476 146.513Z"
                  fill="#FFE8D1"/>
            <path transform="translate(15.5,0)"
                  d="M97.4785 36.1219H2.49362C1.13347 36.1219 0 37.258 0 38.621V52.9335C0 89.9641 21.3093 116.09 58.2605 116.09C100.879 116.09 117.201 88.1468 117.201 63.8381C117.201 62.4751 116.068 61.3391 114.708 61.3391H101.559C100.199 61.3391 99.0654 62.4751 99.0654 63.6112C99.0654 85.6478 83.4235 97.9155 58.2605 97.9155C32.8708 97.9155 18.1356 79.9682 18.1356 54.2965H114.708C116.068 54.2965 117.201 53.1608 117.201 51.7974V26.8075C117.201 10.6776 106.546 0 90.451 0H3.17373C1.81356 0 0.680083 1.13589 0.680083 2.49899V15.6756C0.680083 17.0387 1.81356 18.1746 3.17373 18.1746H87.7309C94.5316 18.1746 99.0654 22.7182 99.0654 29.5337V34.5317C99.0654 35.4404 98.3853 36.1219 97.4785 36.1219Z"
                  fill="#FFE8D1"/>
          </svg>
