<svg width="452" height="265" viewBox="0 0 452 265" fill="none" xmlns="http://www.w3.org/2000/svg">
<path d="M41.2292 236.366V205.997H127.767C131.236 205.997 134.126 205.476 136.438 204.435C138.866 203.278 140.08 200.906 140.08 197.32C140.08 193.618 138.866 191.246 136.438 190.205C134.126 189.163 131.236 188.643 127.767 188.643H44.004V264.999H0.648438V153.936H121.004C129.675 153.936 137.768 154.572 145.283 155.844C152.913 157.001 159.561 159.142 165.226 162.265C170.892 165.389 175.343 169.785 178.58 175.454C181.817 181.123 183.436 188.412 183.436 197.32C183.436 206.228 181.817 213.285 178.58 218.491C175.343 223.697 170.892 227.573 165.226 230.118C159.561 232.663 152.913 234.341 145.283 235.151C137.768 235.961 129.675 236.366 121.004 236.366H41.2292ZM207.673 153.936H251.029V264.999H207.673V153.936ZM270.959 153.936H451.317V186.908H270.959V153.936ZM339.461 184.652H382.816V264.999H339.461V184.652Z" fill="#C4AC7C"/>
<path d="M155.022 0H220.889L128.264 78.2161L126.206 79.8628L66.5146 131.733H0.648438L97.3896 50.6345L98.8304 49.3997L155.022 0ZM68.5731 0L126.412 50.8405L127.647 52.0757L222.947 131.733H157.081L94.9195 78.0105L94.0961 77.1872L2.70676 0H68.5731ZM294.916 76.1579V92.6243H451.35V131.733H243.458V0H450.938V39.1082H294.916V55.5747H422.531V76.1579H294.916Z" fill="#C4AC7C"/>
</svg>
